<svg id="Layer_1" data-name="Layer 1" xmlns="http://www.w3.org/2000/svg" viewBox="0 0 346.71 316.82"><defs><style>.cls-1{fill:#fff;}.cls-2{fill:#231f20;}.cls-3,.cls-4{fill:none;stroke:#231f20;stroke-linecap:round;stroke-miterlimit:10;}.cls-3{stroke-width:16.36px;}.cls-4{stroke-width:16px;}</style></defs><title>illus 1</title><path class="cls-1" d="M290.09,497.64c-44.89,0-85.59-9.61-114.6-27.05-34.57-20.8-52.85-52.25-52.85-91,0-32.77,15.89-56.72,39.74-82.59,5.12-5.55,16.88-15.28,29.33-25.58,11.85-9.8,25.27-20.9,29.46-25.72s4.38-11.62,4.71-19c.44-9.76,1-21.91,13.06-27.25a16.93,16.93,0,0,1,6.81-1.51c7.05,0,11.45,4.66,15,8.41,2,2.16,4,4.22,6.21,5.33.21-.31.41-.64.58-.91,2.31-3.69,6.62-10.55,16.45-10.55,7.08,0,12,4.81,15.54,8.32a35.46,35.46,0,0,0,3.23,2.95c2.39-1.52,3.61-3.54,5-5.84,2-3.33,5.36-8.9,12.78-8.9a17.27,17.27,0,0,1,6.18,1.25c11.28,4.3,13.95,16,16.3,26.39,1.61,7.08,3.27,14.4,7.29,18.3,5.25,5.11,15.64,13.78,25.69,22.17,11.89,9.93,24.19,20.2,30.67,26.72,25.54,25.67,46.69,49.69,46.69,83.7,0,39-17.46,71.11-50.47,92.92C374.22,487.21,334.16,497.64,290.09,497.64Z" transform="translate(-114.64 -188.82)"/><path class="cls-2" d="M320.54,204.82a9.58,9.58,0,0,1,3.34.73c13.64,5.19,8.6,31,20.86,42.95,11.61,11.28,44.5,37,56.26,48.79,25.49,25.62,44.36,47.75,44.36,78.06,0,77.6-73.26,114.29-155.27,114.29s-159.45-32.43-159.45-110c0-28.77,13.19-50.67,37.62-77.17,9.84-10.67,50-41.19,59-51.48,12.38-14.25.55-37.76,15-44.13a8.88,8.88,0,0,1,3.57-.83c6.87,0,10.17,10.09,19.11,13.55a8.6,8.6,0,0,0,3.12.67c6.85,0,6.11-11.94,16-11.94,7.4,0,12.16,11.56,18.78,11.56a6.41,6.41,0,0,0,3.1-.84c9.4-5.11,8.77-14.18,14.67-14.19m0-16h0c-10.4,0-15.84,6.8-18.58,11.07-4.11-3.63-10-7.6-18-7.6A24.63,24.63,0,0,0,265.72,200c-3.93-4.11-10.2-10-20-10a24.73,24.73,0,0,0-10,2.2,27.86,27.86,0,0,0-15.66,18c-1.68,5.48-1.92,10.94-2.16,16.21-.26,5.91-.51,11.48-2.76,14.08-3.76,4.32-17.48,15.67-28.51,24.79C173.4,276.21,162,285.66,156.5,291.6,142,307.29,132.65,320,126.05,332.88a100.3,100.3,0,0,0-11.41,46.74c0,41.68,19.62,75.5,56.72,97.82,15.8,9.5,34.53,16.74,55.68,21.53a286.42,286.42,0,0,0,63,6.67,256.71,256.71,0,0,0,62.78-7.43c20.66-5.22,39-13,54.43-23.26,35.36-23.37,54.06-57.81,54.06-99.6,0-37-23.19-63.38-49-89.35-6.74-6.78-19.18-17.16-31.21-27.21-9.93-8.29-20.21-16.87-25.24-21.76-2.32-2.26-3.85-9-5.07-14.34-2.52-11.09-6-26.27-21.25-32.09a25,25,0,0,0-9-1.78Z" transform="translate(-114.64 -188.82)"/><path class="cls-3" d="M267.36,210.93c-9.76,14.53-12.9,29.28-4.21,45" transform="translate(-114.64 -188.82)"/><path class="cls-4" d="M300.36,211.76c4.41,19.19,10.86,37.88,21.72,43.38" transform="translate(-114.64 -188.82)"/></svg>