<?xml version="1.0" encoding="utf-8"?>
<!-- Generator: Adobe Illustrator 22.1.0, SVG Export Plug-In . SVG Version: 6.00 Build 0)  -->
<svg version="1.1" id="Layer_1" xmlns="http://www.w3.org/2000/svg" xmlns:xlink="http://www.w3.org/1999/xlink" x="0px" y="0px"
	 viewBox="0 0 576 576" style="enable-background:new 0 0 576 576;" xml:space="preserve">
<style type="text/css">
	.st0{fill:#FFFFFF;}
	.st1{fill:none;stroke:#000000;stroke-width:16.3578;stroke-linecap:round;stroke-miterlimit:10;}
	.st2{fill:none;stroke:#000000;stroke-width:16;stroke-linecap:round;stroke-miterlimit:10;}
	.st3{fill:none;stroke:#000000;stroke-width:14.7301;stroke-linecap:round;stroke-linejoin:round;stroke-miterlimit:10;}
</style>
<g>
	<path class="st0" d="M290.1,497.6c-44.9,0-85.6-9.6-114.6-27.1c-34.6-20.8-52.8-52.2-52.8-91c0-32.8,15.9-56.7,39.7-82.6
		c5.1-5.5,16.9-15.3,29.3-25.6c11.8-9.8,25.3-20.9,29.5-25.7c4.1-4.7,4.4-11.6,4.7-19c0.4-9.8,1-21.9,13.1-27.2
		c2.3-1,4.6-1.5,6.8-1.5c7,0,11.5,4.7,15,8.4c2,2.2,4,4.2,6.2,5.3c0.2-0.3,0.4-0.6,0.6-0.9c2.3-3.7,6.6-10.5,16.5-10.5
		c7.1,0,12,4.8,15.5,8.3c1,0.9,2.3,2.3,3.2,3c2.4-1.5,3.6-3.5,5-5.8c2-3.3,5.4-8.9,12.8-8.9c2,0,4,0.4,6.2,1.2
		c11.3,4.3,13.9,16,16.3,26.4c1.6,7.1,3.3,14.4,7.3,18.3c5.3,5.1,15.6,13.8,25.7,22.2c11.9,9.9,24.2,20.2,30.7,26.7
		c25.5,25.7,46.7,49.7,46.7,83.7c0,39-17.5,71.1-50.5,92.9C374.2,487.2,334.2,497.6,290.1,497.6z"/>
	<path d="M320.5,204.8c0.9,0,2,0.2,3.3,0.7c13.6,5.2,8.6,31,20.9,42.9c11.6,11.3,44.5,37,56.3,48.8c25.5,25.6,44.4,47.8,44.4,78.1
		c0,77.6-73.3,114.3-155.3,114.3c-82,0-159.4-32.4-159.4-110c0-28.8,13.2-50.7,37.6-77.2c9.8-10.7,50-41.2,58.9-51.5
		c12.4-14.3,0.6-37.8,15-44.1c1.3-0.6,2.5-0.8,3.6-0.8c6.9,0,10.2,10.1,19.1,13.6c1.2,0.5,2.2,0.7,3.1,0.7c6.8,0,6.1-11.9,16-11.9
		c7.4,0,12.2,11.6,18.8,11.6c1,0,2-0.3,3.1-0.8C315.3,213.9,314.6,204.8,320.5,204.8 M320.5,188.8
		C320.5,188.8,320.5,188.8,320.5,188.8c-10.4,0-15.8,6.8-18.6,11.1c-4.1-3.6-10-7.6-18-7.6c-8.7,0-14.5,3.9-18.3,7.8
		c-3.9-4.1-10.2-10-20-10c-3.4,0-6.7,0.7-10,2.2c-5.4,2.4-12.4,7.4-15.7,18c-1.7,5.5-1.9,10.9-2.2,16.2c-0.3,5.9-0.5,11.5-2.8,14.1
		c-3.8,4.3-17.5,15.7-28.5,24.8c-13.2,10.9-24.6,20.4-30.1,26.3c-14.5,15.7-23.8,28.4-30.4,41.3c-7.7,15-11.4,30.3-11.4,46.7
		c0,41.7,19.6,75.5,56.7,97.8c15.8,9.5,34.5,16.7,55.7,21.5c19.6,4.4,40.8,6.7,63,6.7c22.1,0,43.3-2.5,62.8-7.4
		c20.7-5.2,39-13,54.4-23.3c35.4-23.4,54.1-57.8,54.1-99.6c0-37-23.2-63.4-49-89.4c-6.7-6.8-19.2-17.2-31.2-27.2
		c-9.9-8.3-20.2-16.9-25.2-21.8c-2.3-2.3-3.8-9-5.1-14.3c-2.5-11.1-6-26.3-21.3-32.1C326.4,189.4,323.5,188.8,320.5,188.8
		L320.5,188.8z"/>
</g>
<path class="st1" d="M267.4,210.9c-9.8,14.5-12.9,29.3-4.2,45"/>
<path class="st2" d="M300.4,211.8c4.4,19.2,10.9,37.9,21.7,43.4"/>
<path class="st3" d="M242.7,54.2c0,0-28.3,20-11.8,45s5.9,48-14.1,51"/>
<path class="st3" d="M301,54.2c0,0-28.3,20-11.8,45s5.9,48-14.1,51"/>
<path class="st3" d="M358,54.2c0,0-28.3,20-11.8,45s5.9,48-14.1,51"/>
</svg>
