<?xml version="1.0" encoding="utf-8"?>
<!-- Generator: Adobe Illustrator 22.1.0, SVG Export Plug-In . SVG Version: 6.00 Build 0)  -->
<svg version="1.1" id="Layer_1" xmlns="http://www.w3.org/2000/svg" xmlns:xlink="http://www.w3.org/1999/xlink" x="0px" y="0px"
	 viewBox="0 0 339.8 448.5" style="enable-background:new 0 0 339.8 448.5;" xml:space="preserve">
<style type="text/css">
	.st0{fill:#FFFFFF;}
	.st1{fill:#231F20;}
	.st2{fill:none;stroke:#231F20;stroke-width:12.84;stroke-linecap:round;stroke-miterlimit:10;}
	.st3{fill:none;stroke:#231F20;stroke-width:12.56;stroke-linecap:round;stroke-miterlimit:10;}
</style>
<title>illus 3</title>
<path class="st0" d="M172,442.3c-44.2,0-84.2-5.8-112.7-16.4c-24.2-9-53.1-26.2-53.1-57.7c0-21.4,16.1-36.5,40.4-52.7
	c5.4-3.6,18.9-9.1,33.3-15c12.9-5.3,27.4-11.2,31.4-14c2.4-1.7,2.5-3.8,1.3-10.1c-1-5.5-3.1-17.1,9.8-20.6c1.7-0.5,3.5-0.7,5.2-0.7
	c5.5,0,9.3,2.5,12.6,4.7c2.4,1.8,5.1,3.1,8,3.9c0.5,0.1,1.1,0.2,1.7,0.2c0.5,0,0.5,0,1.9-1.4c3.6-4,8.7-6.2,14.1-6
	c5.6,0,9.8,2.6,13.2,4.6c2.2,1.4,4.1,2.5,5.6,2.5c0.4,0,0.7-0.1,1.1-0.2c2.4-0.7,4.6-2.2,6.3-4.1c1.9-2,4.9-5,10.4-5
	c1.6,0,3.2,0.2,4.8,0.6c11.5,2.7,12.4,13.1,12.9,20c0.5,6.4,1.1,9.6,3.9,11.3c5.2,3.1,17.3,7.6,29,12c13.7,5.1,26.6,10,33.1,14
	c25.9,16,47.3,31.1,47.3,53.4c0,25-17.6,45.4-50.8,58.9C254.6,436,215.3,442.3,172,442.3z"/>
<path class="st1" d="M202.5,260.6c1.1,0,2.2,0.2,3.3,0.5c13.6,3.2,2.8,23.2,15.1,30.5c11.6,6.9,50.3,18.7,62,26
	c25.5,15.8,44.4,29.4,44.4,48.1c0,47.8-73.3,70.4-155.3,70.4S12.5,416,12.5,368.2c0-17.7,13.2-31.2,37.6-47.5
	c9.8-6.6,55.9-22.8,64.8-29.1c12.4-8.8-5.3-25.8,9.1-29.8c1.2-0.3,2.4-0.5,3.6-0.5c6.9,0,10.2,6.2,19.1,8.4c1,0.3,2.1,0.4,3.1,0.4
	c6.9,0,6.1-7.4,16-7.4c7.4,0,12.2,7.1,18.8,7.1c1.1,0,2.1-0.2,3.1-0.5C197.1,266.2,196.5,260.6,202.5,260.6 M202.4,248L202.4,248
	c-8.2,0-12.5,4.5-14.9,6.9c-0.8,0.9-1.7,1.7-2.8,2.2c-0.7-0.4-1.6-0.9-2.4-1.4c-3.6-2.2-9.1-5.5-16.4-5.5
	c-6.5-0.2-12.9,2.3-17.5,6.9c-1.6-0.7-3.2-1.6-4.7-2.6c-3.7-2.4-8.7-5.7-16-5.7c-2.3,0-4.6,0.3-6.9,1c-10.6,2.9-13.8,10.4-14.7,14.5
	c-1.1,4.9-0.2,9.5,0.4,13.2c0.3,1.4,0.5,2.8,0.6,4.2c-4.4,2.6-19.4,8.8-29.5,12.9c-17.7,7.3-28.9,11.9-34.4,15.6
	c-14.5,9.7-23.9,17.6-30.6,25.6C4.1,346.1,0,356.6,0,368.2c0,19.4,9.9,46.1,57.2,63.6c20.6,7.6,57.3,16.7,114.8,16.7
	c44.1,0,84.3-6.5,113.1-18.2c45.2-18.4,54.7-45.4,54.7-64.7c0-12.2-5.4-23.3-16.4-34.1c-8.5-8.3-19.7-15.9-33.9-24.6
	c-7.1-4.4-20.3-9.3-34.2-14.5c-10.9-4.1-23.1-8.7-27.9-11.5c-0.5-1.1-0.8-4.4-1-6.5c-0.3-4-0.7-8.5-2.6-12.9
	c-2.6-6.5-8.3-11.3-15.2-12.7C206.6,248.3,204.5,248,202.4,248L202.4,248z"/>
<path class="st2" d="M149.3,264.3c-9.8,8.9-12.9,18-4.2,27.7"/>
<path class="st3" d="M182.3,264.9c4.4,11.8,10.9,23.3,21.7,26.7"/>
</svg>
