<?xml version="1.0" standalone="no"?>
<svg
  width="600"
  height="600"
  viewBox="0 0 600 600"
  xmlns="http://www.w3.org/2000/svg"
>
  <g transform="translate(300,300)">
    <path d="M94.8,-96.3C133.1,-80.9,181.3,-60.7,208.1,-20.2C235,20.4,240.5,81.2,216.2,126.3C191.9,171.4,137.8,200.8,87,204.2C36.1,207.7,-11.5,185.1,-65.5,169.8C-119.4,154.5,-179.6,146.5,-210.2,112.3C-240.7,78.1,-241.5,17.7,-223.3,-31.4C-205.2,-80.6,-168.2,-118.4,-127.8,-133.5C-87.4,-148.5,-43.7,-140.8,-7.7,-131.6C28.3,-122.4,56.6,-111.7,94.8,-96.3Z" fill="#FE840E" />
  </g>
</svg>
    